<svg id="Layer_2" data-name="Layer 2" xmlns="http://www.w3.org/2000/svg" viewBox="0 0 800 600"><defs><style>.cls-1{fill:none;stroke:#000;stroke-miterlimit:10;stroke-width:4px;}</style></defs><title>Artboard 1</title><path d="M347.23,166.56l6.37-9.6h.2a2.52,2.52,0,0,1,2.88,1.75l.12,204.54v.19l-7,0h0l0-177.27a4.09,4.09,0,0,0-7.51-2.24l-31.88,48.5-2.54,3.86-.35.4-.31-.21h0l-3.85-3.4-16.16-14.29a4.09,4.09,0,0,0-6.44,1.39,95.49,95.49,0,0,0,19.49,107.28,4.16,4.16,0,0,1,1.23,2.94,4.06,4.06,0,0,1-1.63,3.27,4.11,4.11,0,0,1-5.36-.39,103.77,103.77,0,0,1-17.41-123.6c.24-.46.51-.94.78-1.39,0,0,0,0,0,0,.77-1.34,1-1.58,1.64-2.61l6.47,5,20.43,18.07Z"/><path d="M356.8,159.65v203.6l-.12-204.54A2.43,2.43,0,0,1,356.8,159.65Z"/><path class="cls-1" d="M279.8,205.15l-.31.48c-.68,1-.87,1.27-1.64,2.61,0,0,0,0,0,0-.27.45-.54.93-.78,1.39a103.77,103.77,0,0,0,17.41,123.6,4.11,4.11,0,0,0,5.36.39,4.06,4.06,0,0,0,1.63-3.27,4.16,4.16,0,0,0-1.23-2.94,95.49,95.49,0,0,1-19.49-107.28,4.09,4.09,0,0,1,6.44-1.39L303.34,233l3.85,3.4h0l.31.21.35-.4,2.54-3.86,31.88-48.5a4.09,4.09,0,0,1,7.51,2.24l0,177.27"/><polyline class="cls-1" points="356.8 363.25 356.68 158.71 356.68 158.42"/><path class="cls-1" d="M347.18,166.57h.05l-40.84,62.12L286,210.61c0-.26,0,0,.16-.27"/><line class="cls-1" x1="347.28" y1="166.55" x2="347.23" y2="166.56"/><path class="cls-1" d="M356.8,363.42V159.65a2.43,2.43,0,0,0-.12-.94A2.52,2.52,0,0,0,353.8,157"/><line class="cls-1" x1="349.8" y1="363.42" x2="356.8" y2="363.44"/><polyline class="cls-1" points="279.3 205.49 279.49 205.63 285.96 210.61"/><line class="cls-1" x1="347.23" y1="166.56" x2="353.6" y2="156.96"/><path d="M459.06,301.35c.24-.48.47-.95.69-1.43.67-1.42,1.29-2.87,1.88-4.33.19-.44.36-.89.54-1.34l.18-.47c.18-.47.36-.95.53-1.43q1.33-3.61,2.35-7.37c.14-.51.28-1,.4-1.53.41-1.55.76-3.11,1.08-4.68.09-.42.17-.84.25-1.27l.15-.82.18-1q.15-.86.27-1.71c.11-.72.21-1.43.29-2.15s.22-1.72.3-2.58.14-1.49.19-2.23.09-1.24.12-1.86q0-.56.06-1.11c0-.43,0-.87.05-1.31,0-1,0-2,0-3a94.36,94.36,0,0,0-.93-13.31,2.25,2.25,0,0,0-2.24-1.93H378.6a2.27,2.27,0,0,0-2.27,2.27l.11,116.7c-.88,0-1.77,0-2.66,0h0a3.63,3.63,0,0,1-3.31-3.32V156.45l-.34-.19c.79,0,.43-2,.34-2,1.11,0,2.71-.06,3.83-.06s2.11,0,3.16.06a103.78,103.78,0,0,1,98,80.6q.9,3.87,1.47,7.85a103.88,103.88,0,0,1-17.08,73.95,2.28,2.28,0,0,1-3,.66l-3.53-2a2.27,2.27,0,0,1-.75-3.26c.31-.45.62-.9.92-1.36.65-1,1.28-2,1.9-3,.26-.42.51-.84.76-1.27,1-1.67,1.92-3.37,2.79-5.1Zm-82.62-64.9h89.48a95.46,95.46,0,0,0-89.48-72.3Z"/><path class="cls-1" d="M370,156.24l.14,0c.79,0,.43-2,.34-2"/><path class="cls-1" d="M370.44,156.45V360.13a3.63,3.63,0,0,0,3.31,3.32h0c.89,0,1.78,0,2.66,0h.5"/><path class="cls-1" d="M458.88,301.26c-.87,1.73-1.81,3.43-2.79,5.1-.25.43-.5.85-.76,1.27-.62,1-1.25,2-1.9,3-.3.46-.61.91-.92,1.36a2.27,2.27,0,0,0,.75,3.26l3.53,2a2.28,2.28,0,0,0,3-.66,103.88,103.88,0,0,0,17.08-73.95q-.57-4-1.47-7.85a103.78,103.78,0,0,0-98-80.6c-1,0-2.1-.06-3.16-.06s-2.72,0-3.83.06"/><path class="cls-1" d="M376.44,363.45v0l-.11-116.7a2.27,2.27,0,0,1,2.27-2.27h86.85a2.25,2.25,0,0,1,2.24,1.93,94.36,94.36,0,0,1,.93,13.31c0,1,0,2,0,3,0,.44,0,.88-.05,1.31s0,.74-.06,1.11q0,.93-.12,1.86c-.05.74-.12,1.49-.19,2.23s-.18,1.72-.3,2.58-.18,1.43-.29,2.15q-.12.85-.27,1.71l-.18,1-.15.82c-.08.43-.16.85-.25,1.27-.32,1.57-.67,3.13-1.08,4.68-.12.51-.26,1-.4,1.53q-1,3.75-2.35,7.37c-.17.48-.35,1-.53,1.43l-.18.47c-.18.45-.35.9-.54,1.34-.59,1.46-1.21,2.91-1.88,4.33-.22.48-.45.95-.69,1.43l0,.07"/><path class="cls-1" d="M376.44,236.45v-72.3a95.46,95.46,0,0,1,89.48,72.3Z"/></svg>